<?xml version="1.0" encoding="iso-8859-1"?>
<!-- Generator: Adobe Illustrator 19.0.0, SVG Export Plug-In . SVG Version: 6.00 Build 0)  -->
<svg xmlns="http://www.w3.org/2000/svg" xmlns:xlink="http://www.w3.org/1999/xlink" version="1.1" id="Layer_1" x="0px" y="0px" viewBox="0 0 512 512" style="enable-background:new 0 0 512 512;" xml:space="preserve">
<rect x="100.894" y="10.039" style="fill:#EFEFEF;" width="361.412" height="491.922"/>
<path style="fill:#EF584F;" d="M339.417,312.346c-22.31,0-40.693,16.768-43.26,38.388c-2.568-21.619-20.95-38.388-43.26-38.388  c-24.068,0-43.579,19.511-43.579,43.579c0,45.838,86.835,96.841,86.835,96.841h0.009c0,0,86.835-51.003,86.835-96.841  C382.996,331.857,363.485,312.346,339.417,312.346z"/>
<g>
	<rect x="49.694" y="52.706" style="fill:#41A85F;" width="80.314" height="45.176"/>
	<rect x="49.694" y="143.059" style="fill:#41A85F;" width="80.314" height="45.176"/>
	<rect x="49.694" y="233.412" style="fill:#41A85F;" width="80.314" height="45.176"/>
	<rect x="49.694" y="323.765" style="fill:#41A85F;" width="80.314" height="45.176"/>
	<rect x="49.694" y="414.118" style="fill:#41A85F;" width="80.314" height="45.176"/>
	<polygon style="fill:#41A85F;" points="410.604,250.98 381.49,225.548 350.369,250.98 350.369,10.039 410.604,10.039  "/>
</g>
<g>
	<path style="fill:#231F20;" d="M339.417,302.307c-17.623,0-33.45,8.559-43.26,21.934c-9.81-13.373-25.637-21.934-43.26-21.934   c-29.565,0-53.618,24.053-53.618,53.618c0,22.087,15.796,46.735,46.949,73.254c22.121,18.833,43.924,31.705,44.841,32.244   c1.541,0.905,3.305,1.382,5.093,1.382s3.543-0.478,5.084-1.382c0.918-0.539,22.719-13.411,44.841-32.244   c31.153-26.52,46.949-51.167,46.949-73.254C393.035,326.36,368.982,302.307,339.417,302.307z M296.154,441.021   c-25.407-15.91-76.797-54.428-76.797-85.095c0-18.494,15.046-33.54,33.54-33.54c16.979,0,31.291,12.696,33.291,29.533   c0.6,5.051,4.883,8.855,9.969,8.855s9.37-3.804,9.969-8.855c2-16.837,16.312-29.533,33.291-29.533   c18.493,0,33.54,15.046,33.54,33.54C372.957,386.54,321.557,425.094,296.154,441.021z"/>
	<path style="fill:#231F20;" d="M462.306,0H100.894c-5.545,0-10.039,4.496-10.039,10.039v32.627H49.694   c-5.545,0-10.039,4.496-10.039,10.039v45.176c0,5.544,4.495,10.039,10.039,10.039h41.161v25.098H49.694   c-5.545,0-10.039,4.496-10.039,10.039v45.176c0,5.544,4.495,10.039,10.039,10.039h41.161v25.098H49.694   c-5.545,0-10.039,4.496-10.039,10.039v45.176c0,5.544,4.495,10.039,10.039,10.039h41.161v25.098H49.694   c-5.545,0-10.039,4.496-10.039,10.039v45.176c0,5.544,4.495,10.039,10.039,10.039h41.161v25.098H49.694   c-5.545,0-10.039,4.496-10.039,10.039v45.176c0,5.544,4.495,10.039,10.039,10.039h41.161v32.627   c0,5.544,4.495,10.039,10.039,10.039h361.412c5.545,0,10.039-4.496,10.039-10.039V10.039C472.345,4.496,467.851,0,462.306,0z    M400.565,20.078V228.88l-12.471-10.894c-3.688-3.222-9.164-3.312-12.957-0.213l-14.73,12.037V20.078H400.565z M59.733,62.745   h60.235v25.098H59.733V62.745z M59.733,153.098h60.235v25.098H59.733V153.098z M59.733,243.451h60.235v25.098H59.733V243.451z    M59.733,333.804h60.235v25.098H59.733V333.804z M59.733,424.157h60.235v25.098H59.733V424.157z M452.267,491.922H110.933v-22.588   h19.075c5.545,0,10.039-4.496,10.039-10.039v-45.176c0-5.544-4.495-10.039-10.039-10.039h-19.075V378.98h19.075   c5.545,0,10.039-4.496,10.039-10.039v-45.176c0-5.544-4.495-10.039-10.039-10.039h-19.075v-25.098h19.075   c5.545,0,10.039-4.496,10.039-10.039v-45.176c0-5.544-4.495-10.039-10.039-10.039h-19.075v-25.098h19.075   c5.545,0,10.039-4.496,10.039-10.039v-45.176c0-5.544-4.495-10.039-10.039-10.039h-19.075v-25.098h19.075   c5.545,0,10.039-4.496,10.039-10.039V52.706c0-5.544-4.495-10.039-10.039-10.039h-19.075V20.078h229.396V250.98   c0,3.878,2.234,7.409,5.737,9.07c3.506,1.661,7.652,1.158,10.655-1.297l24.553-20.064L404,258.541   c1.865,1.629,4.222,2.479,6.607,2.479c1.405,0,2.821-0.295,4.15-0.9c3.585-1.628,5.887-5.203,5.887-9.14V20.078h31.624v471.843   H452.267z"/>
	<path style="fill:#231F20;" d="M255.498,123.817h36.977c5.545,0,10.039-4.496,10.039-10.039s-4.495-10.039-10.039-10.039h-36.977   c-5.545,0-10.039,4.496-10.039,10.039S249.953,123.817,255.498,123.817z"/>
	<path style="fill:#231F20;" d="M190.075,123.817h29.281c5.545,0,10.039-4.496,10.039-10.039s-4.495-10.039-10.039-10.039h-29.28   c-5.545,0-10.039,4.496-10.039,10.039S184.532,123.817,190.075,123.817z"/>
	<path style="fill:#231F20;" d="M292.475,143.895h-0.67c-5.545,0-10.039,4.496-10.039,10.039s4.495,10.039,10.039,10.039h0.67   c5.545,0,10.039-4.496,10.039-10.039S298.02,143.895,292.475,143.895z"/>
	<path style="fill:#231F20;" d="M190.075,163.974h68.685c5.545,0,10.039-4.496,10.039-10.039s-4.495-10.039-10.039-10.039h-68.685   c-5.545,0-10.039,4.496-10.039,10.039S184.532,163.974,190.075,163.974z"/>
	<path style="fill:#231F20;" d="M302.515,194.091c0-5.544-4.495-10.039-10.039-10.039h-102.4c-5.545,0-10.039,4.496-10.039,10.039   s4.495,10.039,10.039,10.039h102.4C298.02,204.13,302.515,199.635,302.515,194.091z"/>
</g>
<g>
</g>
<g>
</g>
<g>
</g>
<g>
</g>
<g>
</g>
<g>
</g>
<g>
</g>
<g>
</g>
<g>
</g>
<g>
</g>
<g>
</g>
<g>
</g>
<g>
</g>
<g>
</g>
<g>
</g>
</svg>
